  0
SECTION
  2
HEADER
  9
$ACADVER
  1
AC1014
  9
$HANDSEED
  5
FFFF
  9
$MEASUREMENT
 70
     1
  0
ENDSEC
  0
SECTION
  2
TABLES
  0
TABLE
  2
VPORT
  5
8
330
0
100
AcDbSymbolTable
 70
     4
  0
VPORT
  5
2E
330
8
100
AcDbSymbolTableRecord
100
AcDbViewportTableRecord
  2
*ACTIVE
 70
     0
 10
0.0
 20
0.0
 11
1.0
 21
1.0
 12
210.0
 22
148.5
 13
0.0
 23
0.0
 14
10.0
 24
10.0
 15
10.0
 25
10.0
 16
0.0
 26
0.0
 36
1.0
 17
0.0
 27
0.0
 37
0.0
 40
341.0
 41
1.24
 42
50.0
 43
0.0
 44
0.0
 50
0.0
 51
0.0
 71
     0
 72
   100
 73
     1
 74
     3
 75
     0
 76
     0
 77
     0
 78
     0
  0
ENDTAB
  0
TABLE
  2
LTYPE
  5
5
330
0
100
AcDbSymbolTable
 70
     1
  0
LTYPE
  5
14
330
5
100
AcDbSymbolTableRecord
100
AcDbLinetypeTableRecord
  2
BYBLOCK
 70
     0
  3

 72
    65
 73
     0
 40
0.0
  0
LTYPE
  5
15
330
5
100
AcDbSymbolTableRecord
100
AcDbLinetypeTableRecord
  2
BYLAYER
 70
     0
  3

 72
    65
 73
     0
 40
0.0
  0
LTYPE
  5
16
330
5
100
AcDbSymbolTableRecord
100
AcDbLinetypeTableRecord
  2
CONTINUOUS
 70
     0
  3
Solid line
 72
    65
 73
     0
 40
0.0
  0
ENDTAB
  0
TABLE
  2
LAYER
  5
2
100
AcDbSymbolTable
 70
4
  0
LAYER
  5
50
100
AcDbSymbolTableRecord
100
AcDbLayerTableRecord
  2
0
 70
0
  6
CONTINUOUS
  0
LAYER
  5
51
100
AcDbSymbolTableRecord
100
AcDbLayerTableRecord
  2
background
 70
0
  6
CONTINUOUS
  0
LAYER
  5
52
100
AcDbSymbolTableRecord
100
AcDbLayerTableRecord
  2
outline
 70
0
  6
CONTINUOUS
  0
LAYER
  5
53
100
AcDbSymbolTableRecord
100
AcDbLayerTableRecord
  2
foreground
 70
0
  6
CONTINUOUS
  0
ENDTAB
  0
TABLE
  2
STYLE
  5
3
330
0
100
AcDbSymbolTable
 70
     1
  0
STYLE
  5
11
330
3
100
AcDbSymbolTableRecord
100
AcDbTextStyleTableRecord
  2
STANDARD
 70
     0
 40
0.0
 41
1.0
 50
0.0
 71
     0
 42
2.5
  3
txt
  4

  0
ENDTAB
  0
TABLE
  2
VIEW
  5
6
330
0
100
AcDbSymbolTable
 70
     0
  0
ENDTAB
  0
TABLE
  2
UCS
  5
7
330
0
100
AcDbSymbolTable
 70
     0
  0
ENDTAB
  0
TABLE
  2
APPID
  5
9
330
0
100
AcDbSymbolTable
 70
     2
  0
APPID
  5
12
330
9
100
AcDbSymbolTableRecord
100
AcDbRegAppTableRecord
  2
ACAD
 70
     0
  0
ENDTAB
  0
TABLE
  2
DIMSTYLE
  5
A
330
0
100
AcDbSymbolTable
 70
     1
  0
DIMSTYLE
105
27
330
A
100
AcDbSymbolTableRecord
100
AcDbDimStyleTableRecord
  2
ISO-25
 70
     0
  3

  4

  5

  6

  7

 40
1.0
 41
2.5
 42
0.625
 43
3.75
 44
1.25
 45
0.0
 46
0.0
 47
0.0
 48
0.0
140
2.5
141
2.5
142
0.0
143
0.03937007874016
144
1.0
145
0.0
146
1.0
147
0.625
 71
     0
 72
     0
 73
     0
 74
     0
 75
     0
 76
     0
 77
     1
 78
     8
170
     0
171
     3
172
     1
173
     0
174
     0
175
     0
176
     0
177
     0
178
     0
270
     2
271
     2
272
     2
273
     2
274
     3
340
11
275
     0
280
     0
281
     0
282
     0
283
     0
284
     8
285
     0
286
     0
287
     3
288
     0
  0
ENDTAB
  0
TABLE
  2
BLOCK_RECORD
  5
1
330
0
100
AcDbSymbolTable
 70
     1
  0
BLOCK_RECORD
  5
1F
330
1
100
AcDbSymbolTableRecord
100
AcDbBlockTableRecord
  2
*MODEL_SPACE
  0
BLOCK_RECORD
  5
1B
330
1
100
AcDbSymbolTableRecord
100
AcDbBlockTableRecord
  2
*PAPER_SPACE
  0
ENDTAB
  0
ENDSEC
  0
SECTION
  2
BLOCKS
  0
BLOCK
  5
20
330
1F
100
AcDbEntity
  8
0
100
AcDbBlockBegin
  2
*MODEL_SPACE
 70
     0
 10
0.0
 20
0.0
 30
0.0
  3
*MODEL_SPACE
  1

  0
ENDBLK
  5
21
330
1F
100
AcDbEntity
  8
0
100
AcDbBlockEnd
  0
BLOCK
  5
1C
330
1B
100
AcDbEntity
 67
     1
  8
0
100
AcDbBlockBegin
  2
*PAPER_SPACE
  1

  0
ENDBLK
  5
1D
330
1B
100
AcDbEntity
 67
     1
  8
0
100
AcDbBlockEnd
  0
ENDSEC
  0
SECTION
  2
ENTITIES
  0
LWPOLYLINE
  5
100
100
AcDbEntity
  8
outline
 62
7
100
AcDbPolyline
 90
4
 70
1
 10
0.577865
 20
6.512465
 30
0.0
 10
2.713000
 20
6.512465
 30
0.0
 10
2.713000
 20
3.512465
 30
0.0
 10
0.577865
 20
3.512465
 30
0.0
  0
LWPOLYLINE
  5
101
100
AcDbEntity
  8
outline
 62
7
100
AcDbPolyline
 90
5
 70
1
 10
0.691378
 20
6.404357
 30
0.0
 10
2.415702
 20
6.415167
 30
0.0
 10
2.594081
 20
6.204357
 30
0.0
 10
2.599486
 20
3.631384
 30
0.0
 10
0.691378
 20
3.631384
 30
0.0
  0
LWPOLYLINE
  5
102
100
AcDbEntity
  8
outline
 62
7
100
AcDbPolyline
 90
4
 70
1
 10
3.124284
 20
6.549588
 30
0.0
 10
5.259419
 20
6.549588
 30
0.0
 10
5.259419
 20
3.549588
 30
0.0
 10
3.124284
 20
3.549588
 30
0.0
  0
LWPOLYLINE
  5
103
100
AcDbEntity
  8
outline
 62
7
100
AcDbPolyline
 90
5
 70
1
 10
3.237798
 20
6.441480
 30
0.0
 10
4.962122
 20
6.452291
 30
0.0
 10
5.140500
 20
6.241480
 30
0.0
 10
5.145906
 20
3.668508
 30
0.0
 10
3.237798
 20
3.668508
 30
0.0
  0
LWPOLYLINE
  5
104
100
AcDbEntity
  8
outline
 62
7
100
AcDbPolyline
 90
4
 70
1
 10
5.707833
 20
6.531595
 30
0.0
 10
7.842968
 20
6.531595
 30
0.0
 10
7.842968
 20
3.531595
 30
0.0
 10
5.707833
 20
3.531595
 30
0.0
  0
LWPOLYLINE
  5
105
100
AcDbEntity
  8
outline
 62
7
100
AcDbPolyline
 90
5
 70
1
 10
5.821347
 20
6.423487
 30
0.0
 10
7.545671
 20
6.434298
 30
0.0
 10
7.724050
 20
6.223487
 30
0.0
 10
7.729455
 20
3.650514
 30
0.0
 10
5.821347
 20
3.650514
 30
0.0
  0
LWPOLYLINE
  5
106
100
AcDbEntity
  8
outline
 62
7
100
AcDbPolyline
 90
4
 70
1
 10
0.577867
 20
3.283300
 30
0.0
 10
2.713002
 20
3.283300
 30
0.0
 10
2.713002
 20
0.283300
 30
0.0
 10
0.577867
 20
0.283300
 30
0.0
  0
LWPOLYLINE
  5
107
100
AcDbEntity
  8
outline
 62
7
100
AcDbPolyline
 90
5
 70
1
 10
0.691381
 20
3.175191
 30
0.0
 10
2.415705
 20
3.186002
 30
0.0
 10
2.594083
 20
2.975191
 30
0.0
 10
2.599489
 20
0.402219
 30
0.0
 10
0.691381
 20
0.402219
 30
0.0
  0
LWPOLYLINE
  5
108
100
AcDbEntity
  8
outline
 62
7
100
AcDbPolyline
 90
4
 70
1
 10
3.124284
 20
3.299583
 30
0.0
 10
5.259419
 20
3.299583
 30
0.0
 10
5.259419
 20
0.299583
 30
0.0
 10
3.124284
 20
0.299583
 30
0.0
  0
LWPOLYLINE
  5
109
100
AcDbEntity
  8
outline
 62
7
100
AcDbPolyline
 90
5
 70
1
 10
3.237798
 20
3.191475
 30
0.0
 10
4.962122
 20
3.202286
 30
0.0
 10
5.140500
 20
2.991475
 30
0.0
 10
5.145906
 20
0.418502
 30
0.0
 10
3.237798
 20
0.418502
 30
0.0
  0
LWPOLYLINE
  5
10a
100
AcDbEntity
  8
outline
 62
7
100
AcDbPolyline
 90
4
 70
1
 10
5.707833
 20
3.260757
 30
0.0
 10
7.842968
 20
3.260757
 30
0.0
 10
7.842968
 20
0.260757
 30
0.0
 10
5.707833
 20
0.260757
 30
0.0
  0
LWPOLYLINE
  5
10b
100
AcDbEntity
  8
outline
 62
7
100
AcDbPolyline
 90
5
 70
1
 10
5.821347
 20
3.152649
 30
0.0
 10
7.545671
 20
3.163459
 30
0.0
 10
7.724050
 20
2.952649
 30
0.0
 10
7.729455
 20
0.379676
 30
0.0
 10
5.821347
 20
0.379676
 30
0.0
  0
LWPOLYLINE
  5
10c
100
AcDbEntity
  8
outline
 62
7
100
AcDbPolyline
 90
4
 70
1
 10
0.577865
 20
9.804131
 30
0.0
 10
2.713000
 20
9.804131
 30
0.0
 10
2.713000
 20
6.804131
 30
0.0
 10
0.577865
 20
6.804131
 30
0.0
  0
LWPOLYLINE
  5
10d
100
AcDbEntity
  8
outline
 62
7
100
AcDbPolyline
 90
5
 70
1
 10
0.691378
 20
9.696023
 30
0.0
 10
2.415702
 20
9.706834
 30
0.0
 10
2.594081
 20
9.496023
 30
0.0
 10
2.599486
 20
6.923050
 30
0.0
 10
0.691378
 20
6.923050
 30
0.0
  0
LWPOLYLINE
  5
10e
100
AcDbEntity
  8
outline
 62
7
100
AcDbPolyline
 90
4
 70
1
 10
3.124284
 20
9.778755
 30
0.0
 10
5.259419
 20
9.778755
 30
0.0
 10
5.259419
 20
6.778755
 30
0.0
 10
3.124284
 20
6.778755
 30
0.0
  0
LWPOLYLINE
  5
10f
100
AcDbEntity
  8
outline
 62
7
100
AcDbPolyline
 90
5
 70
1
 10
3.237798
 20
9.670647
 30
0.0
 10
4.962122
 20
9.681458
 30
0.0
 10
5.140500
 20
9.470647
 30
0.0
 10
5.145906
 20
6.897674
 30
0.0
 10
3.237798
 20
6.897674
 30
0.0
  0
LWPOLYLINE
  5
110
100
AcDbEntity
  8
outline
 62
7
100
AcDbPolyline
 90
4
 70
1
 10
0.181820
 20
23.752168
 30
0.0
 10
2.316955
 20
23.752168
 30
0.0
 10
2.316955
 20
20.752168
 30
0.0
 10
0.181820
 20
20.752168
 30
0.0
  0
LWPOLYLINE
  5
111
100
AcDbEntity
  8
outline
 62
7
100
AcDbPolyline
 90
5
 70
1
 10
0.295333
 20
23.644060
 30
0.0
 10
2.019657
 20
23.654871
 30
0.0
 10
2.198036
 20
23.444060
 30
0.0
 10
2.203441
 20
20.871088
 30
0.0
 10
0.295333
 20
20.871088
 30
0.0
  0
LWPOLYLINE
  5
112
100
AcDbEntity
  8
outline
 62
7
100
AcDbPolyline
 90
4
 70
1
 10
2.949883
 20
23.723355
 30
0.0
 10
5.085018
 20
23.723355
 30
0.0
 10
5.085018
 20
20.723355
 30
0.0
 10
2.949883
 20
20.723355
 30
0.0
  0
LWPOLYLINE
  5
113
100
AcDbEntity
  8
outline
 62
7
100
AcDbPolyline
 90
5
 70
1
 10
3.063396
 20
23.615247
 30
0.0
 10
4.787720
 20
23.626058
 30
0.0
 10
4.966099
 20
23.415247
 30
0.0
 10
4.971504
 20
20.842274
 30
0.0
 10
3.063396
 20
20.842274
 30
0.0
  0
LWPOLYLINE
  5
114
100
AcDbEntity
  8
outline
 62
7
100
AcDbPolyline
 90
4
 70
1
 10
5.721462
 20
23.702310
 30
0.0
 10
7.856597
 20
23.702310
 30
0.0
 10
7.856597
 20
20.702310
 30
0.0
 10
5.721462
 20
20.702310
 30
0.0
  0
LWPOLYLINE
  5
115
100
AcDbEntity
  8
outline
 62
7
100
AcDbPolyline
 90
5
 70
1
 10
5.834976
 20
23.594202
 30
0.0
 10
7.559300
 20
23.605013
 30
0.0
 10
7.737678
 20
23.394202
 30
0.0
 10
7.743084
 20
20.821230
 30
0.0
 10
5.834976
 20
20.821230
 30
0.0
  0
LWPOLYLINE
  5
116
100
AcDbEntity
  8
outline
 62
7
100
AcDbPolyline
 90
4
 70
1
 10
5.707833
 20
9.760762
 30
0.0
 10
7.842968
 20
9.760762
 30
0.0
 10
7.842968
 20
6.760762
 30
0.0
 10
5.707833
 20
6.760762
 30
0.0
  0
LWPOLYLINE
  5
117
100
AcDbEntity
  8
outline
 62
7
100
AcDbPolyline
 90
5
 70
1
 10
5.821347
 20
9.652654
 30
0.0
 10
7.545671
 20
9.663464
 30
0.0
 10
7.724050
 20
9.452654
 30
0.0
 10
7.729455
 20
6.879681
 30
0.0
 10
5.821347
 20
6.879681
 30
0.0
  0
LWPOLYLINE
  5
118
100
AcDbEntity
  8
outline
 62
7
100
AcDbPolyline
 90
4
 70
1
 10
0.594552
 20
13.013855
 30
0.0
 10
2.729687
 20
13.013855
 30
0.0
 10
2.729687
 20
10.013855
 30
0.0
 10
0.594552
 20
10.013855
 30
0.0
  0
LWPOLYLINE
  5
119
100
AcDbEntity
  8
outline
 62
7
100
AcDbPolyline
 90
5
 70
1
 10
0.708066
 20
12.905747
 30
0.0
 10
2.432390
 20
12.916557
 30
0.0
 10
2.610768
 20
12.705747
 30
0.0
 10
2.616174
 20
10.132774
 30
0.0
 10
0.708066
 20
10.132774
 30
0.0
  0
LWPOLYLINE
  5
11a
100
AcDbEntity
  8
outline
 62
7
100
AcDbPolyline
 90
4
 70
1
 10
0.181820
 20
20.585502
 30
0.0
 10
2.316955
 20
20.585502
 30
0.0
 10
2.316955
 20
17.585502
 30
0.0
 10
0.181820
 20
17.585502
 30
0.0
  0
LWPOLYLINE
  5
11b
100
AcDbEntity
  8
outline
 62
7
100
AcDbPolyline
 90
5
 70
1
 10
0.295333
 20
20.477394
 30
0.0
 10
2.019657
 20
20.488205
 30
0.0
 10
2.198036
 20
20.277394
 30
0.0
 10
2.203441
 20
17.704421
 30
0.0
 10
0.295333
 20
17.704421
 30
0.0
  0
LWPOLYLINE
  5
11c
100
AcDbEntity
  8
outline
 62
7
100
AcDbPolyline
 90
4
 70
1
 10
3.116338
 20
12.996941
 30
0.0
 10
5.251473
 20
12.996941
 30
0.0
 10
5.251473
 20
9.996941
 30
0.0
 10
3.116338
 20
9.996941
 30
0.0
  0
LWPOLYLINE
  5
11d
100
AcDbEntity
  8
outline
 62
7
100
AcDbPolyline
 90
5
 70
1
 10
3.229851
 20
12.888833
 30
0.0
 10
4.954176
 20
12.899644
 30
0.0
 10
5.132554
 20
12.688833
 30
0.0
 10
5.137959
 20
10.115860
 30
0.0
 10
3.229851
 20
10.115860
 30
0.0
  0
LWPOLYLINE
  5
11e
100
AcDbEntity
  8
outline
 62
7
100
AcDbPolyline
 90
4
 70
1
 10
2.973043
 20
20.514016
 30
0.0
 10
5.108178
 20
20.514016
 30
0.0
 10
5.108178
 20
17.514016
 30
0.0
 10
2.973043
 20
17.514016
 30
0.0
  0
LWPOLYLINE
  5
11f
100
AcDbEntity
  8
outline
 62
7
100
AcDbPolyline
 90
5
 70
1
 10
3.086556
 20
20.405908
 30
0.0
 10
4.810880
 20
20.416719
 30
0.0
 10
4.989259
 20
20.205908
 30
0.0
 10
4.994664
 20
17.632936
 30
0.0
 10
3.086556
 20
17.632936
 30
0.0
  0
LWPOLYLINE
  5
120
100
AcDbEntity
  8
outline
 62
7
100
AcDbPolyline
 90
4
 70
1
 10
5.768202
 20
20.535537
 30
0.0
 10
7.903337
 20
20.535537
 30
0.0
 10
7.903337
 20
17.535537
 30
0.0
 10
5.768202
 20
17.535537
 30
0.0
  0
LWPOLYLINE
  5
121
100
AcDbEntity
  8
outline
 62
7
100
AcDbPolyline
 90
5
 70
1
 10
5.881715
 20
20.427429
 30
0.0
 10
7.606040
 20
20.438239
 30
0.0
 10
7.784418
 20
20.227429
 30
0.0
 10
7.789823
 20
17.654456
 30
0.0
 10
5.881715
 20
17.654456
 30
0.0
  0
ENDSEC
  0
SECTION
  2
OBJECTS
  0
DICTIONARY
  5
C
330
0
100
AcDbDictionary
  3
ACAD_GROUP
350
D
  3
ACAD_MLINESTYLE
350
17
  0
DICTIONARY
  5
D
330
C
100
AcDbDictionary
  0
DICTIONARY
  5
1A
330
C
100
AcDbDictionary
  0
DICTIONARY
  5
17
330
C
100
AcDbDictionary
  3
STANDARD
350
18
  0
DICTIONARY
  5
19
330
C
100
AcDbDictionary
  0
ENDSEC
  0
EOF
