<?xml version="1.0" encoding="UTF-8" standalone="no"?>
<!-- Created with Inkscape (http://www.inkscape.org/) -->

<svg
   xmlns:dc="http://purl.org/dc/elements/1.1/"
   xmlns:cc="http://creativecommons.org/ns#"
   xmlns:rdf="http://www.w3.org/1999/02/22-rdf-syntax-ns#"
   xmlns:svg="http://www.w3.org/2000/svg"
   xmlns="http://www.w3.org/2000/svg"
   xmlns:sodipodi="http://sodipodi.sourceforge.net/DTD/sodipodi-0.dtd"
   xmlns:inkscape="http://www.inkscape.org/namespaces/inkscape"
   version="1.1"
   id="svg2"
   xml:space="preserve"
   width="595"
   height="455.04001"
   viewBox="0 0 595 455.04001"
   sodipodi:docname="Contact Comparisons.svg"
   inkscape:version="0.92.3 (2405546, 2018-03-11)"><metadata
     id="metadata8"><rdf:RDF><cc:Work
         rdf:about=""><dc:format>image/svg+xml</dc:format><dc:type
           rdf:resource="http://purl.org/dc/dcmitype/StillImage" /><dc:title></dc:title></cc:Work></rdf:RDF></metadata><defs
     id="defs6"><clipPath
       clipPathUnits="userSpaceOnUse"
       id="clipPath114"><path
         d="M 57.6,37.5408 H 414.72 V 300.3264 H 57.6 Z"
         id="path112"
         inkscape:connector-curvature="0" /></clipPath><clipPath
       clipPathUnits="userSpaceOnUse"
       id="clipPath124"><path
         d="M 57.6,37.5408 H 414.72 V 300.3264 H 57.6 Z"
         id="path122"
         inkscape:connector-curvature="0" /></clipPath><clipPath
       clipPathUnits="userSpaceOnUse"
       id="clipPath4666"><rect
         style="fill:none;fill-opacity:1;stroke:#000000;stroke-width:1.5;stroke-miterlimit:4;stroke-dasharray:12.00000032, 6.00000016;stroke-dashoffset:1.70792902;stroke-opacity:1"
         id="rect4668"
         width="409.53064"
         height="316.47873"
         x="9.7142096"
         y="-322.10275"
         transform="scale(1,-1)" /></clipPath><clipPath
       id="clipPath4740"
       clipPathUnits="userSpaceOnUse"><path
         inkscape:connector-curvature="0"
         id="path4738"
         d="M -1021,-463 H 1794 V 1233 H -1021 Z" /></clipPath><clipPath
       id="clipPath4760"
       clipPathUnits="userSpaceOnUse"><path
         inkscape:connector-curvature="0"
         id="path4758"
         d="M -1021,-463 H 1794 V 1233 H -1021 Z" /></clipPath><clipPath
       id="clipPath4810"
       clipPathUnits="userSpaceOnUse"><path
         inkscape:connector-curvature="0"
         id="path4808"
         d="M 57.6,37.8576 H 414.72 V 302.8608 H 57.6 Z" /></clipPath><clipPath
       id="clipPath4820"
       clipPathUnits="userSpaceOnUse"><path
         inkscape:connector-curvature="0"
         id="path4818"
         d="M 57.6,37.8576 H 414.72 V 302.8608 H 57.6 Z" /></clipPath><clipPath
       clipPathUnits="userSpaceOnUse"
       id="clipPath5372"><rect
         style="fill:none;fill-opacity:1;stroke:#000000;stroke-width:1.5;stroke-miterlimit:4;stroke-dasharray:12.00000032, 6.00000016;stroke-dashoffset:1.70792902;stroke-opacity:1"
         id="rect5374"
         width="412.08698"
         height="318.01251"
         x="8.5496826"
         y="-322.93762"
         transform="scale(1,-1)" /></clipPath></defs><sodipodi:namedview
     pagecolor="#ffffff"
     bordercolor="#666666"
     borderopacity="1"
     objecttolerance="10"
     gridtolerance="10"
     guidetolerance="10"
     inkscape:pageopacity="0"
     inkscape:pageshadow="2"
     inkscape:window-width="1920"
     inkscape:window-height="1017"
     id="namedview4"
     showgrid="false"
     inkscape:zoom="0.73346166"
     inkscape:cx="307.20001"
     inkscape:cy="227.52"
     inkscape:window-x="-8"
     inkscape:window-y="-8"
     inkscape:window-maximized="1"
     inkscape:current-layer="g10" /><g
     id="g10"
     inkscape:groupmode="layer"
     inkscape:label="2-mass comparison lower"
     transform="matrix(1.3333333,0,0,-1.3333333,0,455.04)"><g
       id="g5444"
       transform="matrix(1.0816588,0,0,1.0816588,-6.9961911,-5.8515665)"><path
         clip-path="url(#clipPath4666)"
         inkscape:connector-curvature="0"
         id="path12"
         style="fill:#ffffff;fill-opacity:1;fill-rule:nonzero;stroke:none"
         d="M 0,0 H 460.8 V 341.28 H 0 Z" /><path
         inkscape:connector-curvature="0"
         id="path14"
         style="fill:#ffffff;fill-opacity:1;fill-rule:nonzero;stroke:none"
         d="M 57.6,37.5408 H 414.72 V 300.3264 H 57.6 Z" /><path
         inkscape:connector-curvature="0"
         id="path16"
         style="fill:#000000;fill-opacity:1;fill-rule:nonzero;stroke:#000000;stroke-width:0.80000001;stroke-linecap:butt;stroke-linejoin:round;stroke-miterlimit:10;stroke-dasharray:none;stroke-opacity:1"
         d="m 73.832727,37.5408 v -3.5" /><text
         id="text20"
         style="font-variant:normal;font-weight:normal;font-size:10px;font-family:'DejaVu Sans';-inkscape-font-specification:DejaVuSans;writing-mode:lr-tb;fill:#000000;fill-opacity:1;fill-rule:nonzero;stroke:none"
         transform="matrix(1,0,0,-1,65.879602,22.94705)"><tspan
           id="tspan18"
           sodipodi:role="line"
           y="0"
           x="0 6.3600001 9.54">0.0</tspan></text>
<path
         inkscape:connector-curvature="0"
         id="path22"
         style="fill:#000000;fill-opacity:1;fill-rule:nonzero;stroke:#000000;stroke-width:0.80000001;stroke-linecap:butt;stroke-linejoin:round;stroke-miterlimit:10;stroke-dasharray:none;stroke-opacity:1"
         d="m 135.32033,37.5408 v -3.5" /><text
         id="text26"
         style="font-variant:normal;font-weight:normal;font-size:10px;font-family:'DejaVu Sans';-inkscape-font-specification:DejaVuSans;writing-mode:lr-tb;fill:#000000;fill-opacity:1;fill-rule:nonzero;stroke:none"
         transform="matrix(1,0,0,-1,127.36721,22.94705)"><tspan
           id="tspan24"
           sodipodi:role="line"
           y="0"
           x="0 6.3600001 9.54">0.2</tspan></text>
<path
         inkscape:connector-curvature="0"
         id="path28"
         style="fill:#000000;fill-opacity:1;fill-rule:nonzero;stroke:#000000;stroke-width:0.80000001;stroke-linecap:butt;stroke-linejoin:round;stroke-miterlimit:10;stroke-dasharray:none;stroke-opacity:1"
         d="m 196.80793,37.5408 v -3.5" /><text
         id="text32"
         style="font-variant:normal;font-weight:normal;font-size:10px;font-family:'DejaVu Sans';-inkscape-font-specification:DejaVuSans;writing-mode:lr-tb;fill:#000000;fill-opacity:1;fill-rule:nonzero;stroke:none"
         transform="matrix(1,0,0,-1,188.85481,22.94705)"><tspan
           id="tspan30"
           sodipodi:role="line"
           y="0"
           x="0 6.3600001 9.54">0.4</tspan></text>
<path
         inkscape:connector-curvature="0"
         id="path34"
         style="fill:#000000;fill-opacity:1;fill-rule:nonzero;stroke:#000000;stroke-width:0.80000001;stroke-linecap:butt;stroke-linejoin:round;stroke-miterlimit:10;stroke-dasharray:none;stroke-opacity:1"
         d="m 258.29554,37.5408 v -3.5" /><text
         id="text38"
         style="font-variant:normal;font-weight:normal;font-size:10px;font-family:'DejaVu Sans';-inkscape-font-specification:DejaVuSans;writing-mode:lr-tb;fill:#000000;fill-opacity:1;fill-rule:nonzero;stroke:none"
         transform="matrix(1,0,0,-1,250.34241,22.94705)"><tspan
           id="tspan36"
           sodipodi:role="line"
           y="0"
           x="0 6.3600001 9.54">0.6</tspan></text>
<path
         inkscape:connector-curvature="0"
         id="path40"
         style="fill:#000000;fill-opacity:1;fill-rule:nonzero;stroke:#000000;stroke-width:0.80000001;stroke-linecap:butt;stroke-linejoin:round;stroke-miterlimit:10;stroke-dasharray:none;stroke-opacity:1"
         d="m 319.78314,37.5408 v -3.5" /><text
         id="text44"
         style="font-variant:normal;font-weight:normal;font-size:10px;font-family:'DejaVu Sans';-inkscape-font-specification:DejaVuSans;writing-mode:lr-tb;fill:#000000;fill-opacity:1;fill-rule:nonzero;stroke:none"
         transform="matrix(1,0,0,-1,311.83002,22.94705)"><tspan
           id="tspan42"
           sodipodi:role="line"
           y="0"
           x="0 6.3600001 9.54">0.8</tspan></text>
<path
         inkscape:connector-curvature="0"
         id="path46"
         style="fill:#000000;fill-opacity:1;fill-rule:nonzero;stroke:#000000;stroke-width:0.80000001;stroke-linecap:butt;stroke-linejoin:round;stroke-miterlimit:10;stroke-dasharray:none;stroke-opacity:1"
         d="m 381.27074,37.5408 v -3.5" /><text
         id="text50"
         style="font-variant:normal;font-weight:normal;font-size:10px;font-family:'DejaVu Sans';-inkscape-font-specification:DejaVuSans;writing-mode:lr-tb;fill:#000000;fill-opacity:1;fill-rule:nonzero;stroke:none"
         transform="matrix(1,0,0,-1,373.31762,22.94705)"><tspan
           id="tspan48"
           sodipodi:role="line"
           y="0"
           x="0 6.3600001 9.54">1.0</tspan></text>
<text
         id="text54"
         style="font-variant:normal;font-weight:normal;font-size:10px;font-family:'DejaVu Sans';-inkscape-font-specification:DejaVuSans;writing-mode:lr-tb;fill:#000000;fill-opacity:1;fill-rule:nonzero;stroke:none"
         transform="matrix(1,0,0,-1,216.74594,9.275175)"><tspan
           id="tspan52"
           sodipodi:role="line"
           y="0"
           x="0 3.9200001 6.6999998 16.440001 22.59 25.77 29.67 34.880001">time (s)</tspan></text>
<path
         inkscape:connector-curvature="0"
         id="path56"
         style="fill:#000000;fill-opacity:1;fill-rule:nonzero;stroke:#000000;stroke-width:0.80000001;stroke-linecap:butt;stroke-linejoin:round;stroke-miterlimit:10;stroke-dasharray:none;stroke-opacity:1"
         d="M 57.6,65.511268 H 54.1" /><text
         id="text60"
         style="font-variant:normal;font-weight:normal;font-size:10px;font-family:'DejaVu Sans';-inkscape-font-specification:DejaVuSans;writing-mode:lr-tb;fill:#000000;fill-opacity:1;fill-rule:nonzero;stroke:none"
         transform="matrix(1,0,0,-1,28.334375,61.714393)"><tspan
           id="tspan58"
           sodipodi:role="line"
           y="0"
           x="0 6.3600001 9.54 15.9">0.05</tspan></text>
<path
         inkscape:connector-curvature="0"
         id="path62"
         style="fill:#000000;fill-opacity:1;fill-rule:nonzero;stroke:#000000;stroke-width:0.80000001;stroke-linecap:butt;stroke-linejoin:round;stroke-miterlimit:10;stroke-dasharray:none;stroke-opacity:1"
         d="M 57.6,97.349887 H 54.1" /><text
         id="text66"
         style="font-variant:normal;font-weight:normal;font-size:10px;font-family:'DejaVu Sans';-inkscape-font-specification:DejaVuSans;writing-mode:lr-tb;fill:#000000;fill-opacity:1;fill-rule:nonzero;stroke:none"
         transform="matrix(1,0,0,-1,28.334375,93.553012)"><tspan
           id="tspan64"
           sodipodi:role="line"
           y="0"
           x="0 6.3600001 9.54 15.9">0.10</tspan></text>
<path
         inkscape:connector-curvature="0"
         id="path68"
         style="fill:#000000;fill-opacity:1;fill-rule:nonzero;stroke:#000000;stroke-width:0.80000001;stroke-linecap:butt;stroke-linejoin:round;stroke-miterlimit:10;stroke-dasharray:none;stroke-opacity:1"
         d="M 57.6,129.18851 H 54.1" /><text
         id="text72"
         style="font-variant:normal;font-weight:normal;font-size:10px;font-family:'DejaVu Sans';-inkscape-font-specification:DejaVuSans;writing-mode:lr-tb;fill:#000000;fill-opacity:1;fill-rule:nonzero;stroke:none"
         transform="matrix(1,0,0,-1,28.334375,125.39163)"><tspan
           id="tspan70"
           sodipodi:role="line"
           y="0"
           x="0 6.3600001 9.54 15.9">0.15</tspan></text>
<path
         inkscape:connector-curvature="0"
         id="path74"
         style="fill:#000000;fill-opacity:1;fill-rule:nonzero;stroke:#000000;stroke-width:0.80000001;stroke-linecap:butt;stroke-linejoin:round;stroke-miterlimit:10;stroke-dasharray:none;stroke-opacity:1"
         d="M 57.6,161.02712 H 54.1" /><text
         id="text78"
         style="font-variant:normal;font-weight:normal;font-size:10px;font-family:'DejaVu Sans';-inkscape-font-specification:DejaVuSans;writing-mode:lr-tb;fill:#000000;fill-opacity:1;fill-rule:nonzero;stroke:none"
         transform="matrix(1,0,0,-1,28.334375,157.23025)"><tspan
           id="tspan76"
           sodipodi:role="line"
           y="0"
           x="0 6.3600001 9.54 15.9">0.20</tspan></text>
<path
         inkscape:connector-curvature="0"
         id="path80"
         style="fill:#000000;fill-opacity:1;fill-rule:nonzero;stroke:#000000;stroke-width:0.80000001;stroke-linecap:butt;stroke-linejoin:round;stroke-miterlimit:10;stroke-dasharray:none;stroke-opacity:1"
         d="M 57.6,192.86574 H 54.1" /><text
         id="text84"
         style="font-variant:normal;font-weight:normal;font-size:10px;font-family:'DejaVu Sans';-inkscape-font-specification:DejaVuSans;writing-mode:lr-tb;fill:#000000;fill-opacity:1;fill-rule:nonzero;stroke:none"
         transform="matrix(1,0,0,-1,28.334375,189.06887)"><tspan
           id="tspan82"
           sodipodi:role="line"
           y="0"
           x="0 6.3600001 9.54 15.9">0.25</tspan></text>
<path
         inkscape:connector-curvature="0"
         id="path86"
         style="fill:#000000;fill-opacity:1;fill-rule:nonzero;stroke:#000000;stroke-width:0.80000001;stroke-linecap:butt;stroke-linejoin:round;stroke-miterlimit:10;stroke-dasharray:none;stroke-opacity:1"
         d="M 57.6,224.70436 H 54.1" /><text
         id="text90"
         style="font-variant:normal;font-weight:normal;font-size:10px;font-family:'DejaVu Sans';-inkscape-font-specification:DejaVuSans;writing-mode:lr-tb;fill:#000000;fill-opacity:1;fill-rule:nonzero;stroke:none"
         transform="matrix(1,0,0,-1,28.334375,220.90749)"><tspan
           id="tspan88"
           sodipodi:role="line"
           y="0"
           x="0 6.3600001 9.54 15.9">0.30</tspan></text>
<path
         inkscape:connector-curvature="0"
         id="path92"
         style="fill:#000000;fill-opacity:1;fill-rule:nonzero;stroke:#000000;stroke-width:0.80000001;stroke-linecap:butt;stroke-linejoin:round;stroke-miterlimit:10;stroke-dasharray:none;stroke-opacity:1"
         d="M 57.6,256.54298 H 54.1" /><text
         id="text96"
         style="font-variant:normal;font-weight:normal;font-size:10px;font-family:'DejaVu Sans';-inkscape-font-specification:DejaVuSans;writing-mode:lr-tb;fill:#000000;fill-opacity:1;fill-rule:nonzero;stroke:none"
         transform="matrix(1,0,0,-1,28.334375,252.74611)"><tspan
           id="tspan94"
           sodipodi:role="line"
           y="0"
           x="0 6.3600001 9.54 15.9">0.35</tspan></text>
<path
         inkscape:connector-curvature="0"
         id="path98"
         style="fill:#000000;fill-opacity:1;fill-rule:nonzero;stroke:#000000;stroke-width:0.80000001;stroke-linecap:butt;stroke-linejoin:round;stroke-miterlimit:10;stroke-dasharray:none;stroke-opacity:1"
         d="M 57.6,288.3816 H 54.1" /><text
         id="text102"
         style="font-variant:normal;font-weight:normal;font-size:10px;font-family:'DejaVu Sans';-inkscape-font-specification:DejaVuSans;writing-mode:lr-tb;fill:#000000;fill-opacity:1;fill-rule:nonzero;stroke:none"
         transform="matrix(1,0,0,-1,28.334375,284.58472)"><tspan
           id="tspan100"
           sodipodi:role="line"
           y="0"
           x="0 6.3600001 9.54 15.9">0.40</tspan></text>
<text
         id="text106"
         style="font-variant:normal;font-weight:normal;font-size:10px;font-family:'DejaVu Sans';-inkscape-font-specification:DejaVuSans;writing-mode:lr-tb;fill:#000000;fill-opacity:1;fill-rule:nonzero;stroke:none"
         transform="matrix(0,1,1,0,22.25625,142.02735)"><tspan
           id="tspan104"
           sodipodi:role="line"
           y="0"
           x="0 7.52 13.67 16.450001 22.799999 29.139999 33.060001 36.240002 40.139999 49.880001">Height (m)</tspan></text>
<g
         id="g108"><g
           clip-path="url(#clipPath114)"
           id="g110"><path
             inkscape:connector-curvature="0"
             id="path116"
             style="fill:none;stroke:#1f77b4;stroke-width:1.5;stroke-linecap:square;stroke-linejoin:round;stroke-miterlimit:10;stroke-dasharray:none;stroke-opacity:1"
             d="m 73.832727,288.3816 1.229752,-0.12615 1.229752,-0.32768 1.229752,-0.52877 1.537191,-0.94249 1.53719,-1.25285 1.53719,-1.56022 1.53719,-1.86358 1.844628,-2.63031 1.844628,-3.05116 1.844628,-3.46124 2.152066,-4.54019 2.152066,-5.06062 2.459504,-6.39046 2.459508,-7.00156 2.766938,-8.55644 3.07438,-10.27923 3.38182,-12.14484 3.68926,-14.11393 4.30413,-17.40643 4.91901,-20.84309 6.45619,-28.3754 11.68265,-52.576131 7.68595,-34.687557 0.30744,-0.829976 0.30743,-0.166 1.22976,-0.04143 140.4992,0.07205 2.76691,0.237128 2.45951,0.428426 2.15206,0.590696 2.15207,0.827282 2.15206,1.091937 2.15207,1.379058 2.15207,1.682837 2.15206,1.997319 2.15207,2.316406 2.15207,2.633983 2.4595,3.389094 2.4595,3.772755 2.76698,4.663931 3.07435,5.633417 3.68928,7.246801 6.14873,12.686964 5.22648,10.60875 3.38179,6.36524 2.76694,4.71887 2.15207,3.27517 2.15206,2.8621 1.84463,2.07875 1.53719,1.43974 1.53719,1.15154 1.53722,0.84315 1.22972,0.43937 1.22975,0.22001 1.22976,-0.009 1.22975,-0.24586 1.22978,-0.49165 1.22975,-0.74515 1.22976,-1.00604 1.22972,-1.2738 1.22975,-1.54793 1.53719,-2.32906 1.53719,-2.77626 1.53722,-3.232 1.53719,-3.69481 1.8446,-5.05228 1.84462,-5.73305 1.84466,-6.417072 2.15204,-8.35099 2.1521,-9.276073 2.45947,-11.718598 2.4595,-12.884179 1.22976,-6.86801 0.30743,-0.801143 0.30744,-0.160224 1.22975,-0.04 9.53058,-6.4e-5 v 0" /></g></g><g
         id="g118"><g
           clip-path="url(#clipPath124)"
           id="g120"><path
             inkscape:connector-curvature="0"
             id="path126"
             style="fill:none;stroke:#ff7f0e;stroke-width:1.5;stroke-linecap:square;stroke-linejoin:round;stroke-miterlimit:10;stroke-dasharray:none;stroke-opacity:1"
             d="m 73.832727,288.3816 1.229752,-0.10089 1.229752,-0.30245 1.229752,-0.50356 1.537191,-0.90905 1.53719,-1.21509 1.53719,-1.51852 1.53719,-1.81933 1.844628,-2.5766 1.844628,-3.00151 1.844628,-3.4219 2.152066,-4.50293 2.152066,-5.02083 2.459504,-6.34985 2.459505,-6.96175 2.766941,-8.51201 3.07438,-10.23955 3.38182,-12.10636 3.68926,-14.079 4.30413,-17.37952 4.91901,-20.84269 6.45619,-28.39192 11.68265,-52.635581 7.99339,-36.178902 0.30743,-0.326207 2.76695,1.626537 3.07438,1.65499 2.4595,1.070215 1.84463,0.59013 1.84463,0.361925 1.53719,0.0967 1.53719,-0.116101 1.53719,-0.354091 1.53719,-0.617575 1.53719,-0.904843 1.53719,-1.211898 1.53719,-1.54041 0.61487,-0.584225 1.84463,0.04881 2.15207,-0.02063 105.45124,0.0075 14.75702,0.116329 2.15207,0.261812 2.15206,0.498343 1.84463,0.633572 2.15207,0.994383 1.84463,1.087255 2.15206,1.553386 2.15207,1.875523 2.15207,2.195359 2.15206,2.514779 2.45951,3.247911 2.4595,3.606882 2.76694,4.472182 3.07438,5.372033 3.9967,7.489341 11.99008,22.846816 2.76694,4.6393 2.45951,3.69699 2.15206,2.83071 1.84463,2.078 1.84463,1.71579 1.53719,1.12533 1.53719,0.82473 1.22975,0.43357 1.22975,0.21926 1.22975,-0.005 1.22976,-0.24012 1.22975,-0.4841 1.22975,-0.7319 1.22975,-0.99107 1.22975,-1.25831 1.22976,-1.53334 1.53719,-2.31144 1.53719,-2.75687 1.53719,-3.21531 1.53719,-3.68281 1.84462,-5.04228 1.84463,-5.727165 1.84463,-6.418612 2.15207,-8.370214 1.84463,-7.907006 v 0" /></g></g><g
         id="g128"><path
           inkscape:connector-curvature="0"
           id="path130"
           style="fill:none;stroke:#000000;stroke-width:0.80000001;stroke-linecap:square;stroke-linejoin:miter;stroke-miterlimit:10;stroke-dasharray:none;stroke-opacity:1"
           d="M 57.6,37.5408 V 300.3264" /><path
           inkscape:connector-curvature="0"
           id="path132"
           style="fill:none;stroke:#000000;stroke-width:0.80000001;stroke-linecap:square;stroke-linejoin:miter;stroke-miterlimit:10;stroke-dasharray:none;stroke-opacity:1"
           d="M 414.72,37.5408 V 300.3264" /><path
           inkscape:connector-curvature="0"
           id="path134"
           style="fill:none;stroke:#000000;stroke-width:0.80000001;stroke-linecap:square;stroke-linejoin:miter;stroke-miterlimit:10;stroke-dasharray:none;stroke-opacity:1"
           d="M 57.6,37.5408 H 414.72" /><path
           inkscape:connector-curvature="0"
           id="path136"
           style="fill:none;stroke:#000000;stroke-width:0.80000001;stroke-linecap:square;stroke-linejoin:miter;stroke-miterlimit:10;stroke-dasharray:none;stroke-opacity:1"
           d="M 57.6,300.3264 H 414.72" /><text
           id="text140"
           style="font-variant:normal;font-weight:normal;font-size:12px;font-family:'DejaVu Sans';-inkscape-font-specification:DejaVuSans;writing-mode:lr-tb;fill:#000000;fill-opacity:1;fill-rule:nonzero;stroke:none"
           transform="matrix(1,0,0,-1,122.19906,306.3264)"><tspan
             id="tspan138"
             sodipodi:role="line"
             y="0"
             x="0 7.6199999 10.956 22.643999 30.252001 33.588001 40.944 45.647999 52.992001 57.924 61.740002 70.115997 77.459999 89.148003 96.767998 104.124 109.056 112.392 118.644 125.988 133.59599 137.412 141.636 148.98 153.912 157.728 164.412 171.756 181.57201 188.952 193.884 197.7 208.056 215.412 221.664">Simulator Comparison for Lower Mass</tspan></text>
<path
           inkscape:connector-curvature="0"
           id="path142"
           style="fill:#ffffff;fill-opacity:0.8;fill-rule:nonzero;stroke:#cccccc;stroke-width:1;stroke-linecap:butt;stroke-linejoin:miter;stroke-miterlimit:10;stroke-dasharray:none;stroke-opacity:0.8"
           d="M 328.04812,262.98265 H 407.72 c 1.33333,0 2,0.66667 2,2 v 28.34375 c 0,1.33333 -0.66667,2 -2,2 h -79.67188 c -1.33333,0 -2,-0.66667 -2,-2 v -28.34375 c 0,-1.33333 0.66667,-2 2,-2 z" /><path
           inkscape:connector-curvature="0"
           id="path144"
           style="fill:none;stroke:#1f77b4;stroke-width:1.5;stroke-linecap:square;stroke-linejoin:round;stroke-miterlimit:10;stroke-dasharray:none;stroke-opacity:1"
           d="m 330.04812,287.23265 h 20" /><text
           id="text148"
           style="font-variant:normal;font-weight:normal;font-size:10px;font-family:'DejaVu Sans';-inkscape-font-specification:DejaVuSans;writing-mode:lr-tb;fill:#000000;fill-opacity:1;fill-rule:nonzero;stroke:none"
           transform="matrix(1,0,0,-1,358.04812,283.73265)"><tspan
             id="tspan146"
             sodipodi:role="line"
             y="0"
             x="0 7.3200002 13.66 16.440001 20.360001">Unity</tspan></text>
<path
           inkscape:connector-curvature="0"
           id="path150"
           style="fill:none;stroke:#ff7f0e;stroke-width:1.5;stroke-linecap:square;stroke-linejoin:round;stroke-miterlimit:10;stroke-dasharray:none;stroke-opacity:1"
           d="m 330.04812,272.56077 h 20" /><text
           id="text154"
           style="font-variant:normal;font-weight:normal;font-size:10px;font-family:'DejaVu Sans';-inkscape-font-specification:DejaVuSans;writing-mode:lr-tb;fill:#000000;fill-opacity:1;fill-rule:nonzero;stroke:none"
           transform="matrix(1,0,0,-1,358.04812,269.06077)"><tspan
             id="tspan152"
             sodipodi:role="line"
             y="0"
             x="0 6.0300002 11.95 18.290001 24.42 34.16 36.939999 42.439999">Pynamics</tspan></text>
</g></g><g
       transform="matrix(1.0727661,0,0,1.0727661,461.20042,-31.512281)"
       inkscape:label="2-mass comparison upper"
       id="g4678"
       clip-path="url(#clipPath5372)"><path
         inkscape:connector-curvature="0"
         id="path4680"
         style="fill:#ffffff;fill-opacity:1;fill-rule:nonzero;stroke:none"
         d="M 0,0 H 460.8 V 344.16 H 0 Z" /><path
         inkscape:connector-curvature="0"
         id="path4682"
         style="fill:#ffffff;fill-opacity:1;fill-rule:nonzero;stroke:none"
         d="M 57.6,37.8576 H 414.72 V 302.8608 H 57.6 Z" /><path
         inkscape:connector-curvature="0"
         id="path4684"
         style="fill:#000000;fill-opacity:1;fill-rule:nonzero;stroke:#000000;stroke-width:0.80000001;stroke-linecap:butt;stroke-linejoin:round;stroke-miterlimit:10;stroke-dasharray:none;stroke-opacity:1"
         d="m 73.832727,37.8576 v -3.5" /><text
         id="text4688"
         style="font-variant:normal;font-weight:normal;font-size:10px;font-family:'DejaVu Sans';-inkscape-font-specification:DejaVuSans;writing-mode:lr-tb;fill:#000000;fill-opacity:1;fill-rule:nonzero;stroke:none"
         transform="matrix(1,0,0,-1,65.879602,23.26385)"><tspan
           id="tspan4686"
           sodipodi:role="line"
           y="0"
           x="0 6.3600001 9.54">0.0</tspan></text>
<path
         inkscape:connector-curvature="0"
         id="path4690"
         style="fill:#000000;fill-opacity:1;fill-rule:nonzero;stroke:#000000;stroke-width:0.80000001;stroke-linecap:butt;stroke-linejoin:round;stroke-miterlimit:10;stroke-dasharray:none;stroke-opacity:1"
         d="m 135.32033,37.8576 v -3.5" /><text
         id="text4694"
         style="font-variant:normal;font-weight:normal;font-size:10px;font-family:'DejaVu Sans';-inkscape-font-specification:DejaVuSans;writing-mode:lr-tb;fill:#000000;fill-opacity:1;fill-rule:nonzero;stroke:none"
         transform="matrix(1,0,0,-1,127.36721,23.26385)"><tspan
           id="tspan4692"
           sodipodi:role="line"
           y="0"
           x="0 6.3600001 9.54">0.2</tspan></text>
<path
         inkscape:connector-curvature="0"
         id="path4696"
         style="fill:#000000;fill-opacity:1;fill-rule:nonzero;stroke:#000000;stroke-width:0.80000001;stroke-linecap:butt;stroke-linejoin:round;stroke-miterlimit:10;stroke-dasharray:none;stroke-opacity:1"
         d="m 196.80793,37.8576 v -3.5" /><text
         id="text4700"
         style="font-variant:normal;font-weight:normal;font-size:10px;font-family:'DejaVu Sans';-inkscape-font-specification:DejaVuSans;writing-mode:lr-tb;fill:#000000;fill-opacity:1;fill-rule:nonzero;stroke:none"
         transform="matrix(1,0,0,-1,188.85481,23.26385)"><tspan
           id="tspan4698"
           sodipodi:role="line"
           y="0"
           x="0 6.3600001 9.54">0.4</tspan></text>
<path
         inkscape:connector-curvature="0"
         id="path4702"
         style="fill:#000000;fill-opacity:1;fill-rule:nonzero;stroke:#000000;stroke-width:0.80000001;stroke-linecap:butt;stroke-linejoin:round;stroke-miterlimit:10;stroke-dasharray:none;stroke-opacity:1"
         d="m 258.29554,37.8576 v -3.5" /><text
         id="text4706"
         style="font-variant:normal;font-weight:normal;font-size:10px;font-family:'DejaVu Sans';-inkscape-font-specification:DejaVuSans;writing-mode:lr-tb;fill:#000000;fill-opacity:1;fill-rule:nonzero;stroke:none"
         transform="matrix(1,0,0,-1,250.34241,23.26385)"><tspan
           id="tspan4704"
           sodipodi:role="line"
           y="0"
           x="0 6.3600001 9.54">0.6</tspan></text>
<path
         inkscape:connector-curvature="0"
         id="path4708"
         style="fill:#000000;fill-opacity:1;fill-rule:nonzero;stroke:#000000;stroke-width:0.80000001;stroke-linecap:butt;stroke-linejoin:round;stroke-miterlimit:10;stroke-dasharray:none;stroke-opacity:1"
         d="m 319.78314,37.8576 v -3.5" /><text
         id="text4712"
         style="font-variant:normal;font-weight:normal;font-size:10px;font-family:'DejaVu Sans';-inkscape-font-specification:DejaVuSans;writing-mode:lr-tb;fill:#000000;fill-opacity:1;fill-rule:nonzero;stroke:none"
         transform="matrix(1,0,0,-1,311.83002,23.26385)"><tspan
           id="tspan4710"
           sodipodi:role="line"
           y="0"
           x="0 6.3600001 9.54">0.8</tspan></text>
<path
         inkscape:connector-curvature="0"
         id="path4714"
         style="fill:#000000;fill-opacity:1;fill-rule:nonzero;stroke:#000000;stroke-width:0.80000001;stroke-linecap:butt;stroke-linejoin:round;stroke-miterlimit:10;stroke-dasharray:none;stroke-opacity:1"
         d="m 381.27074,37.8576 v -3.5" /><text
         id="text4718"
         style="font-variant:normal;font-weight:normal;font-size:10px;font-family:'DejaVu Sans';-inkscape-font-specification:DejaVuSans;writing-mode:lr-tb;fill:#000000;fill-opacity:1;fill-rule:nonzero;stroke:none"
         transform="matrix(1,0,0,-1,373.31762,23.26385)"><tspan
           id="tspan4716"
           sodipodi:role="line"
           y="0"
           x="0 6.3600001 9.54">1.0</tspan></text>
<text
         id="text4722"
         style="font-variant:normal;font-weight:normal;font-size:10px;font-family:'DejaVu Sans';-inkscape-font-specification:DejaVuSans;writing-mode:lr-tb;fill:#000000;fill-opacity:1;fill-rule:nonzero;stroke:none"
         transform="matrix(1,0,0,-1,216.74594,9.591975)"><tspan
           id="tspan4720"
           sodipodi:role="line"
           y="0"
           x="0 3.9200001 6.6999998 16.440001 22.59 25.77 29.67 34.880001">time (s)</tspan></text>
<path
         inkscape:connector-curvature="0"
         id="path4724"
         style="fill:#000000;fill-opacity:1;fill-rule:nonzero;stroke:#000000;stroke-width:0.80000001;stroke-linecap:butt;stroke-linejoin:round;stroke-miterlimit:10;stroke-dasharray:none;stroke-opacity:1"
         d="M 57.6,45.997352 H 54.1" /><g
         transform="translate(26.31875,42.200477)"
         id="g4726"><text
           id="text4730"
           style="font-variant:normal;font-weight:normal;font-size:10px;font-family:'DejaVu Sans';-inkscape-font-specification:DejaVuSans;writing-mode:lr-tb;fill:#000000;fill-opacity:1;fill-rule:nonzero;stroke:none"
           transform="matrix(1,0,0,-1,8.3789063,0)"><tspan
             id="tspan4728"
             sodipodi:role="line"
             y="0"
             x="0 6.3600001 9.54">0.2</tspan></text>
<g
           transform="scale(0.01)"
           id="g4732"><g
             id="g4734"><g
               clip-path="url(#clipPath4740)"
               id="g4736"><path
                 inkscape:connector-curvature="0"
                 id="path4742"
                 style="fill:#000000;fill-opacity:1;fill-rule:nonzero;stroke:none"
                 d="M 106,355 H 732 V 272 H 106 v 83" /></g></g></g></g><path
         inkscape:connector-curvature="0"
         id="path4744"
         style="fill:#000000;fill-opacity:1;fill-rule:nonzero;stroke:#000000;stroke-width:0.80000001;stroke-linecap:butt;stroke-linejoin:round;stroke-miterlimit:10;stroke-dasharray:none;stroke-opacity:1"
         d="M 57.6,80.969977 H 54.1" /><g
         transform="translate(26.31875,77.173102)"
         id="g4746"><text
           id="text4750"
           style="font-variant:normal;font-weight:normal;font-size:10px;font-family:'DejaVu Sans';-inkscape-font-specification:DejaVuSans;writing-mode:lr-tb;fill:#000000;fill-opacity:1;fill-rule:nonzero;stroke:none"
           transform="matrix(1,0,0,-1,8.3789063,0)"><tspan
             id="tspan4748"
             sodipodi:role="line"
             y="0"
             x="0 6.3600001 9.54">0.1</tspan></text>
<g
           transform="scale(0.01)"
           id="g4752"><g
             id="g4754"><g
               clip-path="url(#clipPath4760)"
               id="g4756"><path
                 inkscape:connector-curvature="0"
                 id="path4762"
                 style="fill:#000000;fill-opacity:1;fill-rule:nonzero;stroke:none"
                 d="M 106,355 H 732 V 272 H 106 v 83" /></g></g></g></g><path
         inkscape:connector-curvature="0"
         id="path4764"
         style="fill:#000000;fill-opacity:1;fill-rule:nonzero;stroke:#000000;stroke-width:0.80000001;stroke-linecap:butt;stroke-linejoin:round;stroke-miterlimit:10;stroke-dasharray:none;stroke-opacity:1"
         d="M 57.6,115.9426 H 54.1" /><text
         id="text4768"
         style="font-variant:normal;font-weight:normal;font-size:10px;font-family:'DejaVu Sans';-inkscape-font-specification:DejaVuSans;writing-mode:lr-tb;fill:#000000;fill-opacity:1;fill-rule:nonzero;stroke:none"
         transform="matrix(1,0,0,-1,34.69375,112.14573)"><tspan
           id="tspan4766"
           sodipodi:role="line"
           y="0"
           x="0 6.3600001 9.54">0.0</tspan></text>
<path
         inkscape:connector-curvature="0"
         id="path4770"
         style="fill:#000000;fill-opacity:1;fill-rule:nonzero;stroke:#000000;stroke-width:0.80000001;stroke-linecap:butt;stroke-linejoin:round;stroke-miterlimit:10;stroke-dasharray:none;stroke-opacity:1"
         d="M 57.6,150.91522 H 54.1" /><text
         id="text4774"
         style="font-variant:normal;font-weight:normal;font-size:10px;font-family:'DejaVu Sans';-inkscape-font-specification:DejaVuSans;writing-mode:lr-tb;fill:#000000;fill-opacity:1;fill-rule:nonzero;stroke:none"
         transform="matrix(1,0,0,-1,34.69375,147.11835)"><tspan
           id="tspan4772"
           sodipodi:role="line"
           y="0"
           x="0 6.3600001 9.54">0.1</tspan></text>
<path
         inkscape:connector-curvature="0"
         id="path4776"
         style="fill:#000000;fill-opacity:1;fill-rule:nonzero;stroke:#000000;stroke-width:0.80000001;stroke-linecap:butt;stroke-linejoin:round;stroke-miterlimit:10;stroke-dasharray:none;stroke-opacity:1"
         d="M 57.6,185.88785 H 54.1" /><text
         id="text4780"
         style="font-variant:normal;font-weight:normal;font-size:10px;font-family:'DejaVu Sans';-inkscape-font-specification:DejaVuSans;writing-mode:lr-tb;fill:#000000;fill-opacity:1;fill-rule:nonzero;stroke:none"
         transform="matrix(1,0,0,-1,34.69375,182.09097)"><tspan
           id="tspan4778"
           sodipodi:role="line"
           y="0"
           x="0 6.3600001 9.54">0.2</tspan></text>
<path
         inkscape:connector-curvature="0"
         id="path4782"
         style="fill:#000000;fill-opacity:1;fill-rule:nonzero;stroke:#000000;stroke-width:0.80000001;stroke-linecap:butt;stroke-linejoin:round;stroke-miterlimit:10;stroke-dasharray:none;stroke-opacity:1"
         d="M 57.6,220.86047 H 54.1" /><text
         id="text4786"
         style="font-variant:normal;font-weight:normal;font-size:10px;font-family:'DejaVu Sans';-inkscape-font-specification:DejaVuSans;writing-mode:lr-tb;fill:#000000;fill-opacity:1;fill-rule:nonzero;stroke:none"
         transform="matrix(1,0,0,-1,34.69375,217.0636)"><tspan
           id="tspan4784"
           sodipodi:role="line"
           y="0"
           x="0 6.3600001 9.54">0.3</tspan></text>
<path
         inkscape:connector-curvature="0"
         id="path4788"
         style="fill:#000000;fill-opacity:1;fill-rule:nonzero;stroke:#000000;stroke-width:0.80000001;stroke-linecap:butt;stroke-linejoin:round;stroke-miterlimit:10;stroke-dasharray:none;stroke-opacity:1"
         d="M 57.6,255.8331 H 54.1" /><text
         id="text4792"
         style="font-variant:normal;font-weight:normal;font-size:10px;font-family:'DejaVu Sans';-inkscape-font-specification:DejaVuSans;writing-mode:lr-tb;fill:#000000;fill-opacity:1;fill-rule:nonzero;stroke:none"
         transform="matrix(1,0,0,-1,34.69375,252.03622)"><tspan
           id="tspan4790"
           sodipodi:role="line"
           y="0"
           x="0 6.3600001 9.54">0.4</tspan></text>
<path
         inkscape:connector-curvature="0"
         id="path4794"
         style="fill:#000000;fill-opacity:1;fill-rule:nonzero;stroke:#000000;stroke-width:0.80000001;stroke-linecap:butt;stroke-linejoin:round;stroke-miterlimit:10;stroke-dasharray:none;stroke-opacity:1"
         d="M 57.6,290.80572 H 54.1" /><text
         id="text4798"
         style="font-variant:normal;font-weight:normal;font-size:10px;font-family:'DejaVu Sans';-inkscape-font-specification:DejaVuSans;writing-mode:lr-tb;fill:#000000;fill-opacity:1;fill-rule:nonzero;stroke:none"
         transform="matrix(1,0,0,-1,34.69375,287.00885)"><tspan
           id="tspan4796"
           sodipodi:role="line"
           y="0"
           x="0 6.3600001 9.54">0.5</tspan></text>
<text
         id="text4802"
         style="font-variant:normal;font-weight:normal;font-size:10px;font-family:'DejaVu Sans';-inkscape-font-specification:DejaVuSans;writing-mode:lr-tb;fill:#000000;fill-opacity:1;fill-rule:nonzero;stroke:none"
         transform="matrix(0,1,1,0,20.240625,143.45295)"><tspan
           id="tspan4800"
           sodipodi:role="line"
           y="0"
           x="0 7.52 13.67 16.450001 22.799999 29.139999 33.060001 36.240002 40.139999 49.880001">Height (m)</tspan></text>
<g
         id="g4804"><g
           clip-path="url(#clipPath4810)"
           id="g4806"><path
             inkscape:connector-curvature="0"
             id="path4812"
             style="fill:none;stroke:#1f77b4;stroke-width:1.5;stroke-linecap:square;stroke-linejoin:round;stroke-miterlimit:10;stroke-dasharray:none;stroke-opacity:1"
             d="m 73.832727,290.80572 15.371901,-0.10149 4.611573,-0.27705 3.689257,-0.43174 3.381822,-0.62608 3.07437,-0.81273 2.76695,-0.97063 2.4595,-1.08296 2.4595,-1.31651 2.45951,-1.5752 2.4595,-1.85848 2.45951,-2.16554 2.4595,-2.49526 2.4595,-2.84629 2.45951,-3.21685 2.4595,-3.60508 2.45951,-4.00881 2.4595,-4.42571 2.4595,-4.85315 2.76695,-5.9806 2.76694,-6.53876 2.76694,-7.09959 3.07438,-8.54311 3.07438,-9.19493 3.68926,-11.76983 4.30413,-14.53105 5.84132,-20.60794 11.99008,-42.54624 4.30414,-14.38303 3.68925,-11.6003 3.38182,-9.892015 3.07438,-8.273058 2.76694,-6.788753 2.45951,-5.465522 2.4595,-4.893544 2.15207,-3.78792 2.15206,-3.307431 1.84463,-2.44018 1.84463,-2.066427 1.53719,-1.431115 1.53719,-1.162805 1.53719,-0.891592 1.53719,-0.618141 1.53719,-0.343151 1.53719,-0.06729 1.53719,0.208717 1.53719,0.484196 1.53719,0.758486 1.53719,1.030888 1.53719,1.300702 1.53719,1.567228 1.84463,2.227022 1.84463,2.597137 1.84466,2.957985 2.15203,3.892697 2.15207,4.35021 2.4595,5.504411 2.45951,6.038874 2.76694,7.384305 3.07438,8.867781 3.38185,10.457905 3.99666,13.14068 4.91901,17.02122 9.22314,32.98351 6.14876,21.55705 4.30413,14.33504 3.68926,11.54607 3.38182,9.83238 3.07438,8.21122 2.76694,6.72761 2.45953,5.40789 2.15204,4.26253 2.1521,3.80387 2.15203,3.32852 1.84463,2.46428 1.84466,2.09815 1.8446,1.72701 1.53719,1.1533 1.53719,0.89232 1.53719,0.63133 1.53719,0.3712 1.53719,0.11271 1.53722,-0.14321 1.53719,-0.39568 1.53719,-0.64391 1.53719,-0.88712 1.53716,-1.12448 1.84463,-1.65329 1.84462,-1.97277 1.84466,-2.27801 2.15204,-3.02276 2.15209,-3.39049 2.45951,-4.28831 2.76691,-5.29716 3.07441,-6.393 3.68923,-8.24409 4.30413,-10.19183 7.07107,-17.40962 7.68598,-18.75662 4.61154,-10.69886 3.99673,-8.7569 3.68922,-7.587 3.68926,-7.07811 3.68929,-6.56697 3.68922,-6.08249 3.68926,-5.6521 3.68925,-5.24357 3.07438,-4.01063 3.07439,-3.64132 0.30743,-0.34238 v 0" /></g></g><g
         id="g4814"><g
           clip-path="url(#clipPath4820)"
           id="g4816"><path
             inkscape:connector-curvature="0"
             id="path4822"
             style="fill:none;stroke:#ff7f0e;stroke-width:1.5;stroke-linecap:square;stroke-linejoin:round;stroke-miterlimit:10;stroke-dasharray:none;stroke-opacity:1"
             d="m 73.832727,290.80572 14.449587,-0.1062 4.919008,-0.25055 3.689257,-0.38814 3.381821,-0.57191 3.07438,-0.75137 2.76694,-0.9067 2.4595,-1.01438 2.45951,-1.24076 2.4595,-1.49153 2.45951,-1.76297 2.4595,-2.05866 2.4595,-2.38373 2.45951,-2.72712 2.4595,-3.09081 2.45951,-3.47378 2.4595,-3.87825 2.4595,-4.28694 2.45951,-4.70876 2.76694,-5.81437 2.76694,-6.36349 2.76694,-6.92602 3.07438,-8.34815 3.07438,-9.0154 3.68926,-11.57429 4.30413,-14.31668 5.53389,-19.24473 13.21983,-46.2886 4.30413,-14.1257 3.68926,-11.38654 3.07438,-8.842869 3.07438,-8.173219 2.45951,-6.015052 2.76694,-6.17029 2.4595,-4.880873 2.15207,-3.836932 2.15206,-3.314213 1.84463,-2.489577 1.84463,-2.13645 1.84463,-1.770897 1.53719,-1.186085 1.53719,-0.927257 1.53719,-0.655904 1.53719,-0.377908 1.53719,-0.111626 1.53719,0.161395 1.53719,0.438466 1.53719,0.708804 1.53719,0.975863 1.53719,1.245577 1.53719,1.508228 1.84463,2.143049 1.84463,2.510843 1.84462,2.874149 2.15207,3.78462 2.15207,4.232777 2.4595,5.375811 2.76694,6.675878 2.76694,7.29225 3.07438,8.762222 3.38182,10.33114 3.9967,12.99202 4.91901,16.83515 8.30082,29.40066 6.76364,23.57105 4.30413,14.23311 3.68926,11.48044 3.38182,9.77473 3.07437,8.1758 2.76695,6.70305 2.4595,5.38704 2.4595,4.81286 2.15207,3.72218 2.15207,3.24954 1.84463,2.39805 1.84462,2.03656 1.84463,1.66687 1.53719,1.10488 1.53719,0.84167 1.53719,0.58173 1.53719,0.31838 1.53719,0.0598 1.53719,-0.19873 1.53719,-0.44982 1.53719,-0.69729 1.53719,-0.94421 1.53719,-1.18761 1.84463,-1.72344 1.84463,-2.04909 1.84463,-2.36505 2.15206,-3.12127 2.15207,-3.5002 2.4595,-4.42562 2.76694,-5.46143 3.07439,-6.59618 3.38181,-7.77999 4.30414,-10.49643 6.45619,-16.438 8.91571,-22.63716 4.61157,-11.11144 3.99669,-9.09676 3.68926,-7.88116 3.68925,-7.34821 2.76695,-5.17844 v 0" /></g></g><g
         id="g4824"><path
           inkscape:connector-curvature="0"
           id="path4826"
           style="fill:none;stroke:#000000;stroke-width:0.80000001;stroke-linecap:square;stroke-linejoin:miter;stroke-miterlimit:10;stroke-dasharray:none;stroke-opacity:1"
           d="M 57.6,37.8576 V 302.8608" /><path
           inkscape:connector-curvature="0"
           id="path4828"
           style="fill:none;stroke:#000000;stroke-width:0.80000001;stroke-linecap:square;stroke-linejoin:miter;stroke-miterlimit:10;stroke-dasharray:none;stroke-opacity:1"
           d="M 414.72,37.8576 V 302.8608" /><path
           inkscape:connector-curvature="0"
           id="path4830"
           style="fill:none;stroke:#000000;stroke-width:0.80000001;stroke-linecap:square;stroke-linejoin:miter;stroke-miterlimit:10;stroke-dasharray:none;stroke-opacity:1"
           d="M 57.6,37.8576 H 414.72" /><path
           inkscape:connector-curvature="0"
           id="path4832"
           style="fill:none;stroke:#000000;stroke-width:0.80000001;stroke-linecap:square;stroke-linejoin:miter;stroke-miterlimit:10;stroke-dasharray:none;stroke-opacity:1"
           d="M 57.6,302.8608 H 414.72" /><text
           id="text4836"
           style="font-variant:normal;font-weight:normal;font-size:12px;font-family:'DejaVu Sans';-inkscape-font-specification:DejaVuSans;writing-mode:lr-tb;fill:#000000;fill-opacity:1;fill-rule:nonzero;stroke:none"
           transform="matrix(1,0,0,-1,122.10531,308.8608)"><tspan
             id="tspan4834"
             sodipodi:role="line"
             y="0"
             x="0 7.6199999 10.956 22.643999 30.252001 33.588001 40.944 45.647999 52.992001 57.924 61.740002 70.115997 77.459999 89.148003 96.767998 104.124 109.056 112.392 118.644 125.988 133.59599 137.412 141.636 148.98 153.912 157.728 166.51199 174.132 181.752 189.132 194.064 197.88 208.23599 215.592 221.84399">Simulator Comparison for Upper Mass</tspan></text>
<path
           inkscape:connector-curvature="0"
           id="path4838"
           style="fill:#ffffff;fill-opacity:0.8;fill-rule:nonzero;stroke:#cccccc;stroke-width:1;stroke-linecap:butt;stroke-linejoin:miter;stroke-miterlimit:10;stroke-dasharray:none;stroke-opacity:0.8"
           d="M 328.04812,265.51705 H 407.72 c 1.33333,0 2,0.66667 2,2 v 28.34375 c 0,1.33333 -0.66667,2 -2,2 h -79.67188 c -1.33333,0 -2,-0.66667 -2,-2 v -28.34375 c 0,-1.33333 0.66667,-2 2,-2 z" /><path
           inkscape:connector-curvature="0"
           id="path4840"
           style="fill:none;stroke:#1f77b4;stroke-width:1.5;stroke-linecap:square;stroke-linejoin:round;stroke-miterlimit:10;stroke-dasharray:none;stroke-opacity:1"
           d="m 330.04812,289.76705 h 20" /><text
           id="text4844"
           style="font-variant:normal;font-weight:normal;font-size:10px;font-family:'DejaVu Sans';-inkscape-font-specification:DejaVuSans;writing-mode:lr-tb;fill:#000000;fill-opacity:1;fill-rule:nonzero;stroke:none"
           transform="matrix(1,0,0,-1,358.04812,286.26705)"><tspan
             id="tspan4842"
             sodipodi:role="line"
             y="0"
             x="0 7.3200002 13.66 16.440001 20.360001">Unity</tspan></text>
<path
           inkscape:connector-curvature="0"
           id="path4846"
           style="fill:none;stroke:#ff7f0e;stroke-width:1.5;stroke-linecap:square;stroke-linejoin:round;stroke-miterlimit:10;stroke-dasharray:none;stroke-opacity:1"
           d="m 330.04812,275.09517 h 20" /><text
           id="text4850"
           style="font-variant:normal;font-weight:normal;font-size:10px;font-family:'DejaVu Sans';-inkscape-font-specification:DejaVuSans;writing-mode:lr-tb;fill:#000000;fill-opacity:1;fill-rule:nonzero;stroke:none"
           transform="matrix(1,0,0,-1,358.04812,271.59517)"><tspan
             id="tspan4848"
             sodipodi:role="line"
             y="0"
             x="0 6.0300002 11.95 18.290001 24.42 34.16 36.939999 42.439999">Pynamics</tspan></text>
</g></g></g></svg>